<svg width="364" height="56" viewBox="0 0 364 56" fill="none" xmlns="http://www.w3.org/2000/svg">
<path fill-rule="evenodd" clip-rule="evenodd" d="M55.5385 48.5021H55.7125L55.1777 50.0012C54.5358 51.8007 53.1934 52.9929 51.2928 53.5531C49.5333 54.0716 46.6531 54.3015 42.7692 54.3015C40.0528 54.3015 37.9566 54.2014 36.5215 53.9976L36.5148 53.9966C34.9952 53.7715 33.7038 53.2263 32.7566 52.2573C31.7307 51.2078 31.3494 49.6576 31.3494 47.8842V33.246H25.0683C24.43 38.2937 22.7113 42.676 19.8952 46.365C16.8906 50.3008 13.0037 52.9882 8.27277 54.4364L8.26465 54.4389C6.68285 54.91 5.3932 55.1882 4.47272 55.1882C3.53409 55.1882 2.62231 54.9729 1.94446 54.3439C1.25069 53.7003 1 52.8095 1 51.8912C1 50.9958 1.24974 50.0961 2.00217 49.4878C2.59893 49.0053 3.53519 48.6668 4.60257 48.3954C8.4586 47.3892 11.5418 45.4399 13.8905 42.5431C16.0109 39.928 17.3676 36.8413 17.9464 33.2544H12.7628C10.7459 33.2544 9.02738 32.7506 7.82118 31.5444C6.61498 30.3382 6.11121 28.6197 6.11121 26.6028V9.24479C6.11121 7.85681 6.43842 6.62021 7.19128 5.62378L7.19492 5.61896C7.96342 4.61313 9.16889 3.94689 10.621 3.51764L10.6498 3.50913L23.003 0.214253C23.518 0.0756825 24.0274 0 24.5328 0C25.2573 0 25.9404 0.200878 26.5166 0.650529C27.0727 1.08454 27.4481 1.6868 27.6949 2.3622C27.8567 2.7536 27.9469 3.16768 27.9469 3.58983C27.9469 4.4054 27.6783 5.14232 27.1498 5.75889C26.5962 6.40468 25.8247 6.78141 24.958 6.9759L18.3796 8.50362L16.1339 9.06473C14.6216 9.44245 13.7411 9.66236 13.4839 9.72925C13.3153 9.7835 13.2173 9.83531 13.1667 9.86947C13.1563 9.87649 13.1435 9.88638 13.1435 9.88638C13.0961 9.98719 13.0262 10.2167 12.9981 10.6279V14.5891H23.5206C24.5058 14.5891 25.454 14.7854 26.1696 15.3707C26.9286 15.9916 27.2275 16.8826 27.2275 17.8276C27.2275 18.7727 26.9286 19.6637 26.1696 20.2845C25.454 20.8699 24.5058 21.0661 23.5206 21.0661H12.9981V25.3564C12.9981 25.9943 13.1622 26.2681 13.2967 26.3964C13.4411 26.5341 13.7587 26.7021 14.4609 26.7021H42.9867C43.6889 26.7021 44.0064 26.5341 44.1509 26.3964C44.2853 26.2681 44.4495 25.9943 44.4495 25.3564V21.0661H33.0403C32.0679 21.0661 31.1293 20.8682 30.4226 20.2759C29.6775 19.6513 29.3919 18.762 29.3919 17.8276C29.3919 16.89 29.6816 16.0016 30.4268 15.3785C31.1335 14.7875 32.0708 14.5891 33.0403 14.5891H44.4495V10.4745C44.4495 9.90991 44.294 9.60909 44.108 9.42655L44.1005 9.4192C43.9154 9.23406 43.599 9.07022 42.9783 9.07022H33.1574C32.1488 9.07022 31.185 8.86671 30.4601 8.26923C29.6937 7.63754 29.3919 6.73321 29.3919 5.77318C29.3919 4.81315 29.6937 3.90882 30.4601 3.27713C31.185 2.67964 32.1488 2.47614 33.1574 2.47614H44.392C46.562 2.47614 48.3961 2.95096 49.6201 4.15272C50.8368 5.3473 51.3364 7.0821 51.3364 9.12767V26.3602C51.3364 28.4585 50.8648 30.2471 49.7112 31.4776C48.5327 32.7347 46.7445 33.246 44.6263 33.246H38.4538V45.7092C38.4538 46.5763 38.6026 46.9675 38.6943 47.0985C38.749 47.1766 38.9162 47.3398 39.4569 47.4299C40.059 47.5303 41.1724 47.5903 42.8612 47.5903C44.3554 47.5903 45.5513 47.5509 46.4591 47.476C47.4015 47.3982 47.9284 47.2892 48.1554 47.1998L48.1968 47.1835C48.2357 47.17 48.4503 47.0897 48.6258 46.4082C48.8043 45.7147 48.9166 44.3868 48.9166 42.3045C48.9166 41.2739 49.1488 40.2918 49.8119 39.5648C50.493 38.8181 51.4446 38.539 52.4478 38.539C53.4519 38.539 54.3994 38.8191 55.0683 39.5802C55.7098 40.3102 55.9196 41.2879 55.9206 42.2974C55.9512 44.8462 55.8317 46.9297 55.5385 48.5021ZM61.9524 51.8798C61.9524 52.6134 62.2254 53.2532 62.7543 53.7822C63.2832 54.3196 63.923 54.5841 64.6567 54.5841H114.529C115.262 54.5841 115.902 54.3111 116.431 53.7822C116.968 53.2532 117.233 52.6134 117.233 51.8798C117.233 51.1461 116.96 50.5063 116.431 49.9774C115.902 49.4399 115.262 49.1754 114.529 49.1754H93.5254C93.3206 49.1754 93.133 49.0901 92.9709 48.928C92.8088 48.766 92.7235 48.5783 92.7235 48.3735C92.7235 48.1688 92.8088 47.9982 92.9709 47.8531C93.133 47.7081 93.3206 47.6399 93.5254 47.6399H110.971C111.705 47.6399 112.345 47.3669 112.874 46.838C113.411 46.309 113.675 45.6692 113.675 44.9356C113.675 44.2019 113.402 43.5621 112.874 43.0332C112.345 42.4957 111.705 42.2313 110.971 42.2313H93.5254C93.3206 42.2313 93.133 42.1459 92.9709 41.9839C92.8088 41.8218 92.7235 41.6341 92.7235 41.4293C92.7235 41.2246 92.8088 41.054 92.9709 40.909C93.133 40.7639 93.3206 40.6957 93.5254 40.6957H106.364C108.045 40.6957 109.487 40.0985 110.698 38.8871C111.901 37.6757 112.507 36.234 112.507 34.5534V27.5495C112.507 25.8689 111.91 24.4272 110.698 23.2158C109.487 22.0129 108.045 21.4072 106.364 21.4072H72.889C71.1743 21.4072 69.7155 22.0044 68.5297 23.2158C67.3439 24.4272 66.7468 25.8689 66.7468 27.5495V34.5534C66.7468 36.234 67.3439 37.6757 68.5297 38.8871C69.7155 40.09 71.1658 40.6957 72.889 40.6957H85.7281C85.9329 40.6957 86.1035 40.7639 86.2485 40.909C86.3935 41.054 86.4618 41.2246 86.4618 41.4293C86.4618 41.6341 86.3935 41.8218 86.2485 41.9839C86.1035 42.1459 85.9329 42.2313 85.7281 42.2313H68.2823C67.506 42.2313 66.8577 42.5042 66.3458 43.0332C65.8339 43.5621 65.578 44.2019 65.578 44.9356C65.578 45.6692 65.8339 46.309 66.3458 46.838C66.8577 47.3754 67.506 47.6399 68.2823 47.6399H85.7281C85.9329 47.6399 86.1035 47.7081 86.2485 47.8531C86.3935 47.9982 86.4618 48.1688 86.4618 48.3735C86.4618 48.5783 86.3935 48.766 86.2485 48.928C86.1035 49.0901 85.9329 49.1754 85.7281 49.1754H64.6567C63.923 49.1754 63.2832 49.4484 62.7543 49.9774C62.2168 50.5063 61.9524 51.1461 61.9524 51.8798ZM66.0728 14.1047C65.2538 14.1047 64.5543 14.3948 63.9827 14.9663H63.9913C63.4197 15.5465 63.1296 16.2375 63.1296 17.0564C63.1296 17.8754 63.4197 18.5749 63.9913 19.1465C64.5628 19.7266 65.2624 20.0081 66.0813 20.0081H113.13C113.948 20.0081 114.648 19.7181 115.22 19.1465C115.791 18.5749 116.081 17.8754 116.081 17.0564C116.081 16.2375 115.791 15.5379 115.22 14.9663C114.648 14.3948 113.948 14.1047 113.13 14.1047H104.65C104.445 14.1047 104.257 14.0194 104.095 13.8573C103.933 13.6952 103.848 13.4905 103.848 13.2431C103.848 13.1237 103.865 13.0213 103.908 12.936L104.334 11.7075C104.496 11.3407 104.735 11.0506 105.042 10.8459C105.349 10.6412 105.691 10.5388 106.057 10.5388H110.852C111.671 10.5388 112.37 10.2487 112.942 9.67716C113.513 9.10559 113.803 8.40605 113.803 7.58708C113.803 6.76811 113.513 6.06857 112.942 5.497C112.37 4.92543 111.671 4.63537 110.852 4.63537H94.0799C93.7131 4.63537 93.4145 4.51594 93.1927 4.26854C92.9623 4.02115 92.8514 3.73109 92.8514 3.40692V3.28748C92.8514 2.42586 92.5273 1.67513 91.896 1.04384C91.2647 0.404024 90.4884 0.0883789 89.5926 0.0883789C88.6969 0.0883789 87.9376 0.412555 87.3234 1.04384C86.7092 1.68367 86.4021 2.42586 86.4021 3.28748V3.40692C86.4021 3.73962 86.2826 4.02115 86.0352 4.26854C85.7878 4.51594 85.4978 4.63537 85.1736 4.63537H68.342C67.5231 4.63537 66.8235 4.92543 66.252 5.497C65.6804 6.06857 65.3903 6.76811 65.3903 7.58708C65.3903 8.40605 65.6804 9.10559 66.252 9.67716C66.8235 10.2487 67.5231 10.5388 68.342 10.5388H73.1364C73.5033 10.5388 73.8445 10.6412 74.1516 10.8459C74.4587 11.0506 74.6976 11.3407 74.8597 11.7075L75.2862 12.936C75.4142 13.226 75.3886 13.4905 75.2265 13.7379C75.0644 13.9853 74.8426 14.1047 74.5526 14.1047H66.0728ZM73.9895 28.3599C73.7848 28.3599 73.6142 28.2746 73.4691 28.1125C73.3241 27.9504 73.2559 27.7628 73.2559 27.558C73.2559 27.3533 73.3241 27.1827 73.4691 27.0376C73.6142 26.8926 73.7848 26.8244 73.9895 26.8244H85.7196C85.9243 26.8244 86.0949 26.8926 86.24 27.0376C86.385 27.1827 86.4532 27.3533 86.4532 27.558C86.4532 27.7628 86.385 27.9504 86.24 28.1125C86.0949 28.2746 85.9243 28.3599 85.7196 28.3599H73.9895ZM73.9895 35.3041C73.7848 35.3041 73.6142 35.2188 73.4691 35.0567C73.3241 34.8946 73.2559 34.707 73.2559 34.5022C73.2559 34.2975 73.3241 34.1269 73.4691 33.9818C73.6142 33.8368 73.7848 33.7686 73.9895 33.7686H85.7196C85.9243 33.7686 86.0949 33.8368 86.24 33.9818C86.385 34.1269 86.4532 34.2975 86.4532 34.5022C86.4532 34.707 86.385 34.8946 86.24 35.0567C86.0949 35.2188 85.9243 35.3041 85.7196 35.3041H73.9895ZM82.93 13.8061C82.6228 13.6014 82.401 13.3113 82.2816 12.9445L82.2987 12.953L81.8039 11.7246C81.7186 11.4345 81.7612 11.1701 81.9233 10.9227C82.0854 10.6753 82.3072 10.5559 82.5973 10.5559H96.6051C96.8525 10.5559 97.0572 10.6412 97.2193 10.8288C97.3814 11.008 97.4667 11.2042 97.4667 11.4089C97.4667 11.5284 97.4496 11.6307 97.407 11.7161L96.9122 12.9445C96.7842 13.3113 96.5709 13.6014 96.2638 13.8061C95.9567 14.0109 95.6155 14.1133 95.2486 14.1133H83.9451C83.5783 14.1133 83.2371 14.0109 82.93 13.8061ZM93.5254 28.3599C93.3206 28.3599 93.133 28.2746 92.9709 28.1125C92.8088 27.9504 92.7235 27.7628 92.7235 27.558C92.7235 27.3533 92.8088 27.1827 92.9709 27.0376C93.133 26.8926 93.3206 26.8244 93.5254 26.8244H105.196C105.4 26.8244 105.588 26.8926 105.75 27.0376C105.912 27.1827 105.998 27.3533 105.998 27.558C105.998 27.7628 105.912 27.9504 105.75 28.1125C105.588 28.2746 105.4 28.3599 105.196 28.3599H93.5254ZM93.5254 35.3041C93.3206 35.3041 93.133 35.2188 92.9709 35.0567C92.8088 34.8946 92.7235 34.707 92.7235 34.5022C92.7235 34.2975 92.8088 34.1269 92.9709 33.9818C93.133 33.8368 93.3206 33.7686 93.5254 33.7686H105.196C105.4 33.7686 105.588 33.8368 105.75 33.9818C105.912 34.1269 105.998 34.2975 105.998 34.5022C105.998 34.707 105.912 34.8946 105.75 35.0567C105.588 35.2188 105.4 35.3041 105.196 35.3041H93.5254ZM168.708 54.6689C168.137 54.2764 167.727 53.7561 167.48 53.0992L164.349 44.9265C164.229 44.645 163.999 44.5 163.675 44.5C163.47 44.5 163.282 44.5853 163.12 44.7474L157.712 51.4442C157.097 52.2205 156.296 52.6129 155.314 52.6129C154.581 52.6129 153.924 52.3911 153.352 51.939C152.619 51.3247 152.243 50.5228 152.243 49.5418C152.243 48.8422 152.465 48.2109 152.917 47.6394L160.595 38.1188C160.919 37.7093 161.09 37.2828 161.09 36.8307C161.09 36.5491 161.03 36.2761 160.902 36.0288L153.839 17.5422C153.677 17.1754 153.438 16.8853 153.131 16.6806C152.823 16.4758 152.482 16.3734 152.115 16.3734H133.996C133.629 16.3734 133.322 16.4929 133.074 16.7403C132.827 16.9877 132.682 17.2692 132.648 17.6019L132.341 23.9916V24.111C132.341 24.4011 132.452 24.657 132.682 24.8788C132.904 25.1006 133.185 25.22 133.509 25.22H144.139C145.777 25.22 147.176 25.8257 148.345 27.0286C149.513 28.24 150.051 29.6817 149.974 31.3623L149.053 47.9465C149.01 48.8081 148.677 49.5332 148.038 50.1304C147.406 50.7276 146.656 51.0176 145.794 51.0176C144.856 51.0176 144.062 50.6764 143.431 50.0024C142.791 49.3285 142.518 48.5181 142.603 47.5797L143.337 32.7187V32.5993C143.337 32.3093 143.226 32.0533 142.996 31.8315C142.774 31.6097 142.492 31.4903 142.168 31.4903H133.202C132.835 31.4903 132.528 31.6097 132.281 31.8571C132.034 32.1045 131.914 32.386 131.914 32.7187L130.933 50.8385C130.89 51.7428 130.541 52.4935 129.892 53.1077C129.235 53.7219 128.459 54.029 127.555 54.029C126.651 54.029 125.874 53.6793 125.217 52.9883C124.56 52.2887 124.253 51.4698 124.296 50.5314L126.139 16.0151C126.224 14.2919 126.889 12.8416 128.135 11.6558C129.38 10.47 130.865 9.87287 132.588 9.87287H149.667C149.949 9.87287 150.179 9.75343 150.341 9.50604C150.503 9.25864 150.529 8.99418 150.401 8.70413L149.053 5.07847C148.891 4.7543 148.805 4.34481 148.805 3.85002C148.805 2.98839 149.121 2.22061 149.761 1.54666C150.392 0.872718 151.203 0.53148 152.184 0.53148C152.841 0.53148 153.446 0.727692 153.992 1.11158C154.547 1.50401 154.948 2.0244 155.187 2.68128L157.524 8.70413C157.643 9.07096 157.865 9.36101 158.172 9.56575C158.479 9.7705 158.821 9.87287 159.188 9.87287H174.424C175.328 9.87287 176.096 10.1885 176.727 10.8283C177.358 11.4596 177.683 12.2274 177.683 13.1317C177.683 14.036 177.367 14.8038 176.727 15.435C176.096 16.0663 175.328 16.3905 174.424 16.3905H161.713C161.423 16.3905 161.201 16.5099 161.039 16.7573C160.877 17.0047 160.834 17.2692 160.919 17.5592L165.773 30.0912C165.893 30.3813 166.123 30.5178 166.447 30.5178C166.652 30.5178 166.814 30.4324 166.942 30.2704L171.856 24.2475C172.47 23.5139 173.272 23.1385 174.253 23.1385C175.03 23.1385 175.669 23.3603 176.156 23.8124C176.932 24.4267 177.324 25.2286 177.324 26.2096C177.324 26.9092 177.103 27.5405 176.65 28.112L169.527 36.8989C169.203 37.351 169.032 37.8202 169.032 38.315C169.032 38.4345 169.075 38.6648 169.152 38.989L173.699 50.719C173.818 51.0859 173.886 51.4783 173.886 51.8878C173.886 52.7921 173.579 53.5769 172.965 54.2509C172.351 54.9248 171.549 55.266 170.568 55.266C169.911 55.266 169.297 55.0698 168.725 54.6859L168.708 54.6689ZM162.318 3.53437C162.318 2.92015 162.489 2.3571 162.839 1.84525C163.189 1.33339 163.666 0.958028 164.281 0.71063C164.647 0.591197 165.014 0.522949 165.39 0.522949C165.961 0.522949 166.516 0.693568 167.045 1.04334C167.573 1.39311 167.966 1.85378 168.213 2.42535L169.382 5.37706C169.501 5.74389 169.57 6.11072 169.57 6.48608C169.57 7.30505 169.28 8.02165 168.708 8.63588C168.137 9.25011 167.394 9.55722 166.499 9.55722C165.884 9.55722 165.313 9.3866 164.775 9.03683C164.246 8.68707 163.854 8.20933 163.607 7.5951L162.498 4.6434C162.378 4.27657 162.31 3.90974 162.31 3.53437H162.318ZM227.249 54.6434C227.897 55.5391 228.759 55.9913 229.825 55.9913L229.842 55.9998C230.542 55.9998 231.156 55.795 231.685 55.3856C232.581 54.7287 233.033 53.85 233.033 52.741C233.033 52.0414 232.828 51.4272 232.419 50.8983L229.902 47.4603C229.74 47.2556 229.655 47.0167 229.655 46.7267C229.655 46.3172 229.825 45.993 230.149 45.7456L235.737 41.6934C236.147 41.4033 236.471 41.0194 236.718 40.5247C236.966 40.0299 237.085 39.5436 237.085 39.0488C237.085 38.3493 236.88 37.735 236.471 37.2061C236.181 36.7966 235.797 36.4725 235.302 36.2251C234.807 35.9777 234.321 35.8582 233.826 35.8582C233.127 35.8582 232.512 36.063 231.983 36.4725L226.396 40.5844C226.234 40.7123 225.986 40.7721 225.662 40.7721C225.21 40.7721 224.886 40.6014 224.681 40.2773L220.996 35.244C220.834 35.0393 220.816 34.8175 220.936 34.5956C221.055 34.3653 221.26 34.2544 221.55 34.2544H237.085C237.947 34.2544 238.672 33.9644 239.269 33.3672C239.858 32.77 240.156 32.0449 240.156 31.1833C240.156 30.3216 239.866 29.5965 239.269 28.9993C238.672 28.4107 237.947 28.1121 237.085 28.1121H201.153C200.828 28.1121 200.547 27.9927 200.325 27.7709C200.095 27.5491 199.984 27.2676 199.984 26.9434C199.984 26.6192 200.103 26.3377 200.325 26.1159C200.547 25.8856 200.828 25.7747 201.153 25.7747H232.231C233.05 25.7747 233.766 25.4846 234.381 24.8874C234.995 24.2903 235.302 23.5651 235.302 22.7035C235.302 21.8419 234.995 21.1168 234.381 20.5196C233.766 19.931 233.05 19.6324 232.231 19.6324H201.153C200.828 19.6324 200.547 19.5129 200.325 19.2911C200.095 19.0693 199.984 18.7878 199.984 18.4636C199.984 18.1395 200.103 17.8579 200.325 17.6361C200.547 17.4058 200.828 17.2949 201.153 17.2949H232.231C233.05 17.2949 233.766 17.0048 234.381 16.4077C234.995 15.8105 235.302 15.0854 235.302 14.2238C235.302 13.3621 234.995 12.637 234.381 12.0398C233.766 11.4512 233.05 11.1526 232.231 11.1526H201.153C200.828 11.1526 200.547 11.0332 200.325 10.8114C200.095 10.5896 199.984 10.308 199.984 9.98387C199.984 9.6597 200.103 9.37817 200.325 9.15637C200.547 8.92603 200.828 8.81513 201.153 8.81513H234.44C235.302 8.81513 236.027 8.52508 236.624 7.92791C237.213 7.33075 237.512 6.60562 237.512 5.74399C237.512 4.88237 237.221 4.15724 236.624 3.56007C236.027 2.97143 235.302 2.67285 234.44 2.67285H199.489C197.809 2.67285 196.367 3.27002 195.155 4.48141C193.953 5.69281 193.347 7.13454 193.347 8.81513V26.9007C193.347 27.2334 193.227 27.515 192.98 27.7624C192.733 28.0098 192.443 28.1292 192.118 28.1292H187.878C187.017 28.1292 186.283 28.4192 185.695 29.0164C185.106 29.6136 184.807 30.3387 184.807 31.2003C184.807 32.062 185.097 32.7871 185.695 33.3843C186.292 33.9729 187.017 34.2715 187.878 34.2715H192.118C192.451 34.2715 192.733 34.3909 192.98 34.6383C193.227 34.8857 193.347 35.1758 193.347 35.4999V47.5371C193.347 47.8271 193.262 48.0831 193.099 48.3049C192.937 48.5267 192.707 48.6802 192.425 48.7655L190.77 49.1921C190.071 49.3542 189.508 49.7295 189.081 50.3267C188.646 50.9239 188.433 51.5637 188.433 52.2632C188.433 53.1675 188.757 53.9097 189.414 54.5069C190.071 55.0955 190.805 55.3941 191.624 55.3941C191.828 55.3941 192.101 55.36 192.425 55.2747L209.01 50.7874C209.701 50.6168 210.272 50.2499 210.699 49.6784C211.134 49.1068 211.347 48.4755 211.347 47.776C211.347 46.9143 211.04 46.1807 210.426 45.5664C209.812 44.9522 209.095 44.6451 208.276 44.6451C208.114 44.6451 207.824 44.6792 207.414 44.7645L201.153 46.4195C200.863 46.5048 200.598 46.4537 200.351 46.266C200.103 46.0783 199.984 45.8224 199.984 45.4982V35.4829C199.984 35.1502 200.103 34.8686 200.351 34.6212C200.598 34.3738 200.888 34.2544 201.212 34.2544H211.159C211.936 34.2544 212.593 34.5786 213.122 35.2355L227.249 54.6434ZM250.461 2.05841C250.709 1.48683 251.093 1.02616 251.63 0.676394C252.159 0.326625 252.739 0.156006 253.353 0.156006C253.72 0.156006 254.155 0.258377 254.642 0.46312C255.623 0.91526 256.237 1.60627 256.484 2.5532C256.57 2.92003 256.723 3.21862 256.945 3.44042C257.167 3.66223 257.448 3.78166 257.772 3.78166H269.63C270.492 3.78166 271.217 4.08024 271.814 4.66888C272.412 5.26604 272.702 5.99117 272.702 6.8528C272.702 7.71442 272.403 8.43955 271.814 9.03672C271.217 9.63389 270.492 9.92394 269.63 9.92394H265.757C265.595 9.92394 265.459 9.99219 265.356 10.1372C265.254 10.2822 265.22 10.4529 265.263 10.6576L265.51 11.2718C265.629 11.6387 265.698 12.0055 265.698 12.3809C265.698 13.1998 265.408 13.925 264.836 14.5648C264.264 15.2046 263.522 15.5202 262.627 15.5202C261.97 15.5202 261.381 15.3496 260.844 14.9999C260.315 14.6501 259.922 14.1724 259.675 13.5581L258.694 11.0415C258.574 10.7173 258.37 10.4443 258.08 10.2396C257.789 10.0348 257.465 9.93247 257.098 9.93247H255.196C254.829 9.93247 254.488 10.0348 254.181 10.2396C253.874 10.4443 253.635 10.7088 253.473 11.0415L252.551 13.0719C252.261 13.6434 251.852 14.1041 251.323 14.4539C250.794 14.8036 250.214 14.9743 249.6 14.9743C248.661 14.9743 247.894 14.6586 247.296 14.0188C246.699 13.3875 246.409 12.6368 246.409 11.7752C246.409 11.4083 246.512 10.9732 246.716 10.487L250.461 2.07547V2.05841ZM246.529 22.4474C246.529 20.7668 247.134 19.325 248.337 18.1136C249.54 16.9023 250.99 16.3051 252.671 16.3051H269.443C269.767 16.3051 270.065 16.1942 270.33 15.9639C270.594 15.742 270.791 15.4435 270.91 15.0766C271.115 14.5051 271.49 14.0359 272.045 13.6605C272.599 13.2937 273.205 13.106 273.853 13.106C274.502 13.106 275.099 13.2851 275.636 13.6264C276.165 13.9761 276.558 14.4539 276.805 15.0681C276.924 15.4349 277.121 15.7335 277.385 15.9553C277.65 16.1771 277.948 16.2966 278.272 16.2966H294.976C296.699 16.2966 298.149 16.9023 299.335 18.1051C300.521 19.3165 301.118 20.7582 301.118 22.4388V27.4721C301.118 28.3764 300.811 29.1271 300.197 29.7413C299.583 30.3556 298.823 30.6627 297.928 30.6627C297.032 30.6627 296.324 30.3556 295.684 29.7413C295.053 29.1271 294.728 28.3678 294.728 27.4721V23.5393C294.728 23.2152 294.618 22.9251 294.387 22.6777C294.157 22.4303 293.867 22.3109 293.5 22.3109H254.13C253.806 22.3109 253.515 22.4303 253.268 22.6777C253.021 22.9251 252.901 23.2066 252.901 23.5393V27.4721C252.901 28.3764 252.594 29.1271 251.98 29.7413C251.366 30.3556 250.606 30.6627 249.711 30.6627C248.815 30.6627 248.107 30.3556 247.467 29.7413C246.827 29.1271 246.512 28.3678 246.512 27.4721V22.4388L246.529 22.4474ZM256.45 52.9455C255.239 51.7341 254.642 50.2924 254.642 48.6118V30.7992C254.642 29.1186 255.247 27.6768 256.45 26.4654C257.653 25.2541 259.103 24.6569 260.784 24.6569H287.443C289.166 24.6569 290.617 25.2626 291.802 26.4654C292.988 27.6768 293.585 29.1186 293.585 30.7992V32.0276C293.585 33.7082 292.988 35.1499 291.802 36.3613C290.617 37.5727 289.158 38.1699 287.443 38.1699H261.893C261.688 38.1699 261.492 38.2552 261.313 38.4173C261.125 38.5794 261.04 38.7841 261.04 39.0315C261.04 39.2789 261.134 39.4837 261.313 39.6458C261.5 39.8078 261.688 39.8932 261.893 39.8932H290.028C291.751 39.8932 293.201 40.4989 294.387 41.7017C295.573 42.9131 296.17 44.3548 296.17 46.0354V48.6118C296.17 50.2924 295.573 51.7341 294.387 52.9455C293.201 54.1569 291.743 54.7541 290.028 54.7541H260.792C259.112 54.7541 257.67 54.1484 256.459 52.9455H256.45ZM261.39 32.5224C261.637 32.7698 261.918 32.8892 262.251 32.8892H286.087C286.411 32.8892 286.701 32.7698 286.948 32.5224C287.196 32.275 287.315 31.9935 287.315 31.6608V31.166C287.315 30.8418 287.196 30.5518 286.948 30.3044C286.701 30.057 286.419 29.9375 286.087 29.9375H262.251C261.927 29.9375 261.637 30.057 261.39 30.3044C261.142 30.5518 261.023 30.8333 261.023 31.166V31.6608C261.023 31.985 261.142 32.275 261.39 32.5224ZM261.39 49.1066C261.637 49.354 261.918 49.4734 262.251 49.4734H288.663C288.987 49.4734 289.277 49.354 289.525 49.1066C289.772 48.8592 289.891 48.5777 289.891 48.2449V46.4023C289.891 46.0781 289.772 45.788 289.525 45.5406C289.277 45.2932 288.996 45.1738 288.663 45.1738H262.251C261.927 45.1738 261.637 45.2932 261.39 45.5406C261.142 45.788 261.023 46.0696 261.023 46.4023V48.2449C261.023 48.5691 261.142 48.8592 261.39 49.1066ZM276.686 2.05841C276.976 1.48683 277.368 1.02616 277.88 0.676394C278.392 0.326625 278.955 0.156006 279.569 0.156006C279.978 0.156006 280.431 0.258377 280.917 0.46312C281.855 0.91526 282.452 1.60627 282.7 2.5532C282.905 3.37217 283.331 3.78166 283.988 3.78166H298.422C299.284 3.78166 300.009 4.08024 300.606 4.66888C301.203 5.26604 301.493 5.99117 301.493 6.8528C301.493 7.71442 301.195 8.43955 300.606 9.03672C300.009 9.63389 299.284 9.92394 298.422 9.92394H293.875C293.713 9.92394 293.577 9.99219 293.474 10.1372C293.372 10.2822 293.338 10.4529 293.381 10.6576L293.628 11.2718C293.747 11.6387 293.816 12.0055 293.816 12.3809C293.816 13.1998 293.526 13.925 292.954 14.5648C292.382 15.2046 291.64 15.5202 290.745 15.5202C290.088 15.5202 289.499 15.3496 288.962 14.9999C288.433 14.6501 288.04 14.1724 287.793 13.5581L286.812 11.0415C286.692 10.7173 286.488 10.4443 286.198 10.2396C285.907 10.0348 285.583 9.93247 285.216 9.93247H281.412C281.045 9.93247 280.704 10.0348 280.396 10.2396C280.089 10.4443 279.85 10.7088 279.688 11.0415L279.569 11.2889C279.322 11.8605 278.938 12.3211 278.4 12.6709C277.871 13.0207 277.291 13.1913 276.677 13.1913C276.31 13.1913 275.875 13.0889 275.389 12.8842C274.775 12.6027 274.305 12.1846 273.973 11.6557C273.649 11.1268 273.486 10.5467 273.486 9.93247C273.486 9.43768 273.572 9.01113 273.734 8.6443L276.686 2.07547V2.05841ZM310.528 42.8446C309.709 42.9299 309.026 43.2882 308.472 43.9195V43.911C307.917 44.5508 307.644 45.2759 307.644 46.0949C307.644 47.076 308.003 47.8864 308.719 48.5177C309.436 49.149 310.263 49.4305 311.21 49.3452L325.03 47.8693C325.849 47.7926 326.532 47.4428 327.086 46.8286C327.641 46.2143 327.914 45.4977 327.914 44.6788C327.914 43.6977 327.556 42.8873 326.839 42.256C326.122 41.6247 325.286 41.3432 324.348 41.4285L322.138 41.6759C321.848 41.7185 321.592 41.6332 321.371 41.4285C321.14 41.2237 321.029 40.9849 321.029 40.6948V29.5193C321.029 29.1866 321.149 28.9221 321.371 28.7174C321.592 28.5126 321.848 28.4103 322.138 28.4103H324.476C325.38 28.4103 326.148 28.0861 326.779 27.4548C327.419 26.8235 327.735 26.0557 327.735 25.1514C327.735 24.2472 327.411 23.4794 326.779 22.8481C326.148 22.2083 325.372 21.8926 324.476 21.8926H322.138C321.848 21.8926 321.592 21.7732 321.371 21.5514C321.14 21.3296 321.029 21.0736 321.029 20.7836V11.9967C321.029 11.6725 321.149 11.391 321.371 11.1692C321.592 10.9389 321.874 10.828 322.198 10.828H324.655C325.559 10.828 326.319 10.5038 326.958 9.87252C327.598 9.24123 327.914 8.47344 327.914 7.56916C327.914 6.66488 327.59 5.89709 326.958 5.2658C326.327 4.62598 325.559 4.31034 324.655 4.31034H310.895C309.99 4.31034 309.223 4.63451 308.591 5.2658C307.952 5.89709 307.636 6.66488 307.636 7.56916C307.636 8.47344 307.96 9.24123 308.591 9.87252C309.223 10.5123 309.99 10.828 310.895 10.828H313.352C313.676 10.828 313.957 10.9474 314.179 11.1692C314.409 11.391 314.52 11.6725 314.52 11.9967V20.7836C314.52 21.0736 314.418 21.3296 314.213 21.5514C314.008 21.7817 313.735 21.8926 313.411 21.8926H311.074C310.17 21.8926 309.402 22.2168 308.77 22.8481C308.131 23.4794 307.815 24.2472 307.815 25.1514C307.815 26.0557 308.139 26.8235 308.77 27.4548C309.402 28.0946 310.17 28.4103 311.074 28.4103H313.411C313.744 28.4103 314.008 28.5126 314.213 28.7174C314.418 28.9221 314.52 29.1951 314.52 29.5193V41.2493C314.52 41.5735 314.401 41.8721 314.179 42.1366C313.957 42.401 313.659 42.5546 313.292 42.5972L310.528 42.8446ZM327.846 51.4438C327.846 52.3396 328.153 53.0988 328.767 53.713C329.381 54.3273 330.132 54.6344 331.036 54.6344H359.717C360.613 54.6344 361.372 54.3273 361.987 53.713C362.601 53.0988 362.908 52.3396 362.908 51.4438C362.908 50.5481 362.601 49.7888 361.987 49.1746C361.372 48.5604 360.613 48.2532 359.717 48.2532H349.89C349.557 48.2532 349.275 48.1338 349.028 47.8864C348.781 47.639 348.661 47.349 348.661 47.0248V44.9347C348.661 44.602 348.781 44.3205 349.028 44.0731C349.275 43.8257 349.565 43.7062 349.89 43.7062H357.448C358.344 43.7062 359.103 43.3991 359.717 42.7849C360.332 42.1707 360.639 41.4114 360.639 40.5157C360.639 39.6199 360.332 38.8607 359.717 38.2464C359.103 37.6322 358.344 37.3251 357.448 37.3251H349.89C349.557 37.3251 349.275 37.2057 349.028 36.9583C348.781 36.7109 348.661 36.4208 348.661 36.0966V34.6805C348.661 34.3478 348.781 34.0663 349.028 33.8189C349.275 33.5715 349.565 33.452 349.89 33.452H355.358C357.039 33.452 358.48 32.8549 359.692 31.6435C360.895 30.4321 361.5 28.9904 361.5 27.3098V8.38813C361.5 6.70753 360.903 5.2658 359.692 4.05441C358.48 2.85155 357.039 2.24585 355.358 2.24585H335.396C333.724 2.24585 332.273 2.84302 331.07 4.05441C329.868 5.2658 329.262 6.70753 329.262 8.38813V27.3098C329.262 28.9904 329.859 30.4321 331.07 31.6435C332.273 32.8464 333.715 33.452 335.396 33.452H340.804C341.171 33.452 341.461 33.5715 341.691 33.8189C341.922 34.0663 342.033 34.3563 342.033 34.6805V36.0966C342.033 36.4293 341.913 36.7109 341.691 36.9583C341.47 37.2057 341.171 37.3251 340.804 37.3251H333.305C332.41 37.3251 331.65 37.6322 331.036 38.2464C330.422 38.8607 330.115 39.6199 330.115 40.5157C330.115 41.4114 330.422 42.1707 331.036 42.7849C331.65 43.3991 332.401 43.7062 333.305 43.7062H340.804C341.171 43.7062 341.461 43.8257 341.691 44.0731C341.922 44.3205 342.033 44.6105 342.033 44.9347V47.0248C342.033 47.3575 341.913 47.639 341.691 47.8864C341.47 48.1338 341.171 48.2532 340.804 48.2532H331.036C330.141 48.2532 329.381 48.5604 328.767 49.1746C328.153 49.7888 327.846 50.5481 327.846 51.4438ZM336.999 14.6498C336.667 14.6498 336.385 14.5304 336.138 14.283C335.89 14.0356 335.771 13.7456 335.771 13.4214V9.85545C335.771 9.52275 335.89 9.24123 336.138 8.99383C336.385 8.74643 336.675 8.627 336.999 8.627H340.804C341.171 8.627 341.47 8.74643 341.691 8.99383C341.922 9.24123 342.033 9.53128 342.033 9.85545V13.4214C342.033 13.7541 341.913 14.0356 341.691 14.283C341.47 14.5304 341.171 14.6498 340.804 14.6498H336.999ZM336.999 27.0538C336.667 27.0538 336.385 26.9344 336.138 26.687C335.89 26.4396 335.771 26.1496 335.771 25.8254V22.2594C335.771 21.9267 335.89 21.6452 336.138 21.3978C336.385 21.1504 336.675 21.031 336.999 21.031H340.804C341.171 21.031 341.461 21.1504 341.691 21.3978C341.922 21.6452 342.033 21.9353 342.033 22.2594V25.8254C342.033 26.1581 341.913 26.4396 341.691 26.687C341.47 26.9344 341.171 27.0538 340.804 27.0538H336.999ZM349.898 14.6498C349.565 14.6498 349.284 14.5304 349.037 14.283C348.789 14.0356 348.67 13.7456 348.67 13.4214V9.85545C348.67 9.52275 348.789 9.24123 349.037 8.99383C349.284 8.74643 349.574 8.627 349.898 8.627H353.771C354.104 8.627 354.385 8.74643 354.633 8.99383C354.88 9.24123 355 9.53128 355 9.85545V13.4214C355 13.7541 354.88 14.0356 354.633 14.283C354.385 14.5304 354.095 14.6498 353.771 14.6498H349.898ZM349.898 27.0538C349.565 27.0538 349.284 26.9344 349.037 26.687C348.789 26.4396 348.67 26.1496 348.67 25.8254V22.2594C348.67 21.9267 348.789 21.6452 349.037 21.3978C349.284 21.1504 349.574 21.031 349.898 21.031H353.771C354.104 21.031 354.385 21.1504 354.633 21.3978C354.88 21.6452 355 21.9353 355 22.2594V25.8254C355 26.1581 354.88 26.4396 354.633 26.687C354.385 26.9344 354.095 27.0538 353.771 27.0538H349.898Z" fill="#525252"/>
</svg>
