<svg width="32" height="32" viewBox="0 0 32 32" fill="none" xmlns="http://www.w3.org/2000/svg">
<path d="M25.2291 26.6666C24.8074 26.6666 24.4433 26.5033 24.1366 26.1768C22.9482 24.9069 21.6448 23.5464 20.2264 22.0952C18.8464 20.6076 17.428 19.1201 15.9713 17.6326C14.3612 19.3015 12.8278 20.8979 11.3711 22.4217C9.95268 23.9455 8.78347 25.1972 7.86343 26.1768C7.59509 26.5033 7.23091 26.6666 6.77089 26.6666C6.38754 26.6666 6.04253 26.5396 5.73585 26.2856C5.46751 25.9954 5.33334 25.6689 5.33334 25.306C5.33334 24.9432 5.44834 24.653 5.67835 24.4353C6.59839 23.4194 7.80593 22.1314 9.30099 20.5713C10.7961 19.0113 12.3678 17.3605 14.0162 15.619C12.5978 14.1314 11.2177 12.6983 9.87601 11.3196C8.57263 9.94096 7.42258 8.68926 6.42588 7.56455C6.19587 7.34686 6.08087 7.07475 6.08087 6.74822C6.08087 6.34913 6.21504 6.0226 6.48338 5.76863C6.79006 5.47838 7.11591 5.33325 7.46092 5.33325C7.95927 5.33325 8.34262 5.49652 8.61096 5.82305C9.60767 6.91148 10.7194 8.1269 11.9461 9.46931C13.2111 10.7754 14.5529 12.1541 15.9713 13.6054C17.313 12.1904 18.578 10.8117 19.7664 9.46931C20.9931 8.1269 22.0473 6.91148 22.929 5.82305C23.2357 5.49652 23.6191 5.33325 24.0791 5.33325C24.5008 5.33325 24.8458 5.47838 25.1141 5.76863C25.3825 6.05888 25.5166 6.36727 25.5166 6.6938C25.5166 7.05661 25.4208 7.34686 25.2291 7.56455C24.3091 8.68926 23.1974 9.94096 21.894 11.3196C20.5906 12.6983 19.2489 14.1314 17.8688 15.619C19.4022 17.1791 20.8973 18.721 22.354 20.2448C23.8107 21.7323 25.1333 23.1292 26.3217 24.4353C26.5517 24.653 26.6667 24.9432 26.6667 25.306C26.6667 25.6326 26.5325 25.941 26.2642 26.2312C25.9958 26.5215 25.6508 26.6666 25.2291 26.6666Z" fill="#525252"/>
</svg>
