<svg width="36" height="36" viewBox="0 0 36 36" fill="none" xmlns="http://www.w3.org/2000/svg">
<path d="M19.5029 28.0759C20.1245 28.0759 20.6104 27.8386 21.2093 27.2736L30.159 18.8775C30.5998 18.4594 30.7693 17.9735 30.7693 17.5554C30.7693 17.126 30.5998 16.6514 30.159 16.2333L21.2093 7.89373C20.5539 7.28352 20.1245 7.03491 19.5255 7.03491C18.6215 7.03491 17.9774 7.73553 17.9774 8.61694V12.6398H17.6949C9.89775 12.6398 6.28168 17.6458 6.28168 25.8498C6.28168 27.2849 6.89189 28.0307 7.6829 28.0307C8.28182 28.0307 8.83553 27.8386 9.27624 27.0137C11.0504 23.714 13.5703 22.5049 17.6949 22.5049H17.9774V26.5504C17.9774 27.4318 18.6215 28.0759 19.5029 28.0759Z" fill="#525252"/>
</svg>
